<svg width="100%" height="100%" viewBox="0 0 1344 756" preserveAspectRatio="none" xmlns="http://www.w3.org/2000/svg">
  <!-- Top Bars -->
  <rect x="0" y="0" width="192" height="504" fill="#fe0002"/>
  <rect x="192" y="0" width="192" height="504" fill="#ff7601"/>
  <rect x="384" y="0" width="192" height="504" fill="#fff001"/>
  <rect x="576" y="0" width="192" height="504" fill="#1abd30"/>
  <rect x="768" y="0" width="192" height="504" fill="#0056ad"/>
  <rect x="960" y="0" width="192" height="504" fill="#ae0c93"/>
  <rect x="1152" y="0" width="192" height="504" fill="#0000c0"/>

  <!-- Middle Bars -->
  <rect x="0" y="504" width="192" height="63" fill="#ff228c"/>
  <rect x="192" y="504" width="192" height="63" fill="#ffd800"/>
  <rect x="384" y="504" width="192" height="63" fill="#22b1ff"/>
  <rect x="576" y="504" width="192" height="63" fill="#81007f"/>
  <rect x="768" y="504" width="192" height="63" fill="#ffffff"/>
  <rect x="960" y="504" width="192" height="63" fill="#a3a3a3"/>
  <rect x="1152" y="504" width="192" height="63" fill="#000000"/>

  <!-- Bottom Bars -->
  <rect x="0" y="567" width="224" height="189" fill="#63c2ee"/>
  <rect x="224" y="567" width="224" height="189" fill="#ff91c3"/>
  <rect x="448" y="567" width="224" height="189" fill="#ffffff"/>
  <rect x="672" y="567" width="224" height="189" fill="#66370d"/>
  <rect x="1120" y="567" width="224" height="189" fill="#131313"/>

  <!-- Bottom Greyscale -->
  <rect x="895" y="567" width="77" height="189" fill="#090909"/>
  <rect x="970.67" y="567" width="76" height="189" fill="#131313"/>
  <rect  x="1045.33" y="567" width="76" height="189" fill="#1d1d1d"/>
</svg>